ModelForces
version=1
nRows=5
nColumns=119
inDegrees=no

This file contains the forces exerted on a model during a simulation.

A force is a generalized force, meaning that it can be either a force (N) or a torque (Nm).

Units are S.I. units (second, meters, Newtons, ...)
Angles are in degrees.

endheader
time	semimem_r	semiten_r	bifemlh_r	bifemsh_r	sar_r	grac_r	rect_fem_r	vas_med_r	vas_int_r	vas_lat_r	med_gas_r	lat_gas_r	femur_lat_meniscii_l.femur_lat_l.force.X	femur_lat_meniscii_l.femur_lat_l.force.Y	femur_lat_meniscii_l.femur_lat_l.force.Z	femur_lat_meniscii_l.femur_lat_l.torque.X	femur_lat_meniscii_l.femur_lat_l.torque.Y	femur_lat_meniscii_l.femur_lat_l.torque.Z	femur_lat_meniscii_l.meniscus_lat_l.force.X	femur_lat_meniscii_l.meniscus_lat_l.force.Y	femur_lat_meniscii_l.meniscus_lat_l.force.Z	femur_lat_meniscii_l.meniscus_lat_l.torque.X	femur_lat_meniscii_l.meniscus_lat_l.torque.Y	femur_lat_meniscii_l.meniscus_lat_l.torque.Z	femur_med_meniscii_l.femur_med_l.force.X	femur_med_meniscii_l.femur_med_l.force.Y	femur_med_meniscii_l.femur_med_l.force.Z	femur_med_meniscii_l.femur_med_l.torque.X	femur_med_meniscii_l.femur_med_l.torque.Y	femur_med_meniscii_l.femur_med_l.torque.Z	femur_med_meniscii_l.meniscus_med_l.force.X	femur_med_meniscii_l.meniscus_med_l.force.Y	femur_med_meniscii_l.meniscus_med_l.force.Z	femur_med_meniscii_l.meniscus_med_l.torque.X	femur_med_meniscii_l.meniscus_med_l.torque.Y	femur_med_meniscii_l.meniscus_med_l.torque.Z	femur_lat_meniscii_r.femur_lat_r.force.X	femur_lat_meniscii_r.femur_lat_r.force.Y	femur_lat_meniscii_r.femur_lat_r.force.Z	femur_lat_meniscii_r.femur_lat_r.torque.X	femur_lat_meniscii_r.femur_lat_r.torque.Y	femur_lat_meniscii_r.femur_lat_r.torque.Z	femur_lat_meniscii_r.meniscus_lat_r.force.X	femur_lat_meniscii_r.meniscus_lat_r.force.Y	femur_lat_meniscii_r.meniscus_lat_r.force.Z	femur_lat_meniscii_r.meniscus_lat_r.torque.X	femur_lat_meniscii_r.meniscus_lat_r.torque.Y	femur_lat_meniscii_r.meniscus_lat_r.torque.Z	femur_med_meniscii_r.femur_med_r.force.X	femur_med_meniscii_r.femur_med_r.force.Y	femur_med_meniscii_r.femur_med_r.force.Z	femur_med_meniscii_r.femur_med_r.torque.X	femur_med_meniscii_r.femur_med_r.torque.Y	femur_med_meniscii_r.femur_med_r.torque.Z	femur_med_meniscii_r.meniscus_med_r.force.X	femur_med_meniscii_r.meniscus_med_r.force.Y	femur_med_meniscii_r.meniscus_med_r.force.Z	femur_med_meniscii_r.meniscus_med_r.torque.X	femur_med_meniscii_r.meniscus_med_r.torque.Y	femur_med_meniscii_r.meniscus_med_r.torque.Z	femur_med_tibia_l.tibia_upper_l.force.X	femur_med_tibia_l.tibia_upper_l.force.Y	femur_med_tibia_l.tibia_upper_l.force.Z	femur_med_tibia_l.tibia_upper_l.torque.X	femur_med_tibia_l.tibia_upper_l.torque.Y	femur_med_tibia_l.tibia_upper_l.torque.Z	femur_med_tibia_l.femur_med_l.force.X	femur_med_tibia_l.femur_med_l.force.Y	femur_med_tibia_l.femur_med_l.force.Z	femur_med_tibia_l.femur_med_l.torque.X	femur_med_tibia_l.femur_med_l.torque.Y	femur_med_tibia_l.femur_med_l.torque.Z	femur_lat_tibia_l.tibia_upper_l.force.X	femur_lat_tibia_l.tibia_upper_l.force.Y	femur_lat_tibia_l.tibia_upper_l.force.Z	femur_lat_tibia_l.tibia_upper_l.torque.X	femur_lat_tibia_l.tibia_upper_l.torque.Y	femur_lat_tibia_l.tibia_upper_l.torque.Z	femur_lat_tibia_l.femur_lat_l.force.X	femur_lat_tibia_l.femur_lat_l.force.Y	femur_lat_tibia_l.femur_lat_l.force.Z	femur_lat_tibia_l.femur_lat_l.torque.X	femur_lat_tibia_l.femur_lat_l.torque.Y	femur_lat_tibia_l.femur_lat_l.torque.Z	femur_med_tibia_r.tibia_upper_r.force.X	femur_med_tibia_r.tibia_upper_r.force.Y	femur_med_tibia_r.tibia_upper_r.force.Z	femur_med_tibia_r.tibia_upper_r.torque.X	femur_med_tibia_r.tibia_upper_r.torque.Y	femur_med_tibia_r.tibia_upper_r.torque.Z	femur_med_tibia_r.femur_med_r.force.X	femur_med_tibia_r.femur_med_r.force.Y	femur_med_tibia_r.femur_med_r.force.Z	femur_med_tibia_r.femur_med_r.torque.X	femur_med_tibia_r.femur_med_r.torque.Y	femur_med_tibia_r.femur_med_r.torque.Z	femur_lat_tibia_r.tibia_upper_r.force.X	femur_lat_tibia_r.tibia_upper_r.force.Y	femur_lat_tibia_r.tibia_upper_r.force.Z	femur_lat_tibia_r.tibia_upper_r.torque.X	femur_lat_tibia_r.tibia_upper_r.torque.Y	femur_lat_tibia_r.tibia_upper_r.torque.Z	femur_lat_tibia_r.femur_lat_r.force.X	femur_lat_tibia_r.femur_lat_r.force.Y	femur_lat_tibia_r.femur_lat_r.force.Z	femur_lat_tibia_r.femur_lat_r.torque.X	femur_lat_tibia_r.femur_lat_r.torque.Y	femur_lat_tibia_r.femur_lat_r.torque.Z	aACL_R	pACL_R	aPCL_R	pPCL_R	aMCL_R	aLCL_R	aPCL_L	pPCL_L	aMCL_L	aLCL_L
      0.27219414	      0.00000000	     88.25402687	    104.03328926	    173.86044434	     62.36364513	     45.96346307	    183.11035299	    244.06063009	     66.34336497	     35.99565652	      0.00000000	      0.00000000	    114.67779376	     77.67690267	     13.43835046	     -2.33317556	      0.38132575	     17.04254777	   -114.67779376	    -77.67690267	    -13.43835046	     -1.87519027	      3.39892233	     -2.98069195	     10.46466834	     29.69103080	      3.86631643	     -1.76984726	      1.14600523	     -3.98010100	    -10.46466834	    -29.69103080	     -3.86631643	      0.53486715	     -0.13265194	     -0.45922699	     41.48726282	     34.76862784	      6.84966139	     -3.61102553	      1.08430323	     16.36754603	    -41.48726282	    -34.76862784	     -6.84966139	      0.98639193	     -1.42931414	      1.28068695	      0.00034597	      0.00001697	      0.00013876	     -0.00005466	     -0.00000777	      0.00013722	     -0.00034597	     -0.00001697	     -0.00013876	     -0.00000085	      0.00000247	      0.00000182	      0.00000000	      0.00000000	      0.00000000	      0.00000000	      0.00000000	      0.00000000	      0.00000000	      0.00000000	      0.00000000	      0.00000000	      0.00000000	      0.00000000	      0.00000000	      0.00000000	      0.00000000	      0.00000000	      0.00000000	      0.00000000	      0.00000000	      0.00000000	      0.00000000	      0.00000000	      0.00000000	      0.00000000	   -450.36025116	    -99.98355159	     45.60628589	     -1.09073229	      6.78682963	      3.95651517	    450.36025116	     99.98355159	    -45.60628589	     19.69326843	     -6.96057362	    179.36188362	      0.00000000	      0.00000000	      0.00000000	      0.00000000	      0.00000000	      0.00000000	      0.00000000	      0.00000000	      0.00000000	      0.00000000	      0.00000000	      0.00000000	      0.00000000	      0.00000000	    989.13257572	    125.66966552	      0.00000000	      0.00000000	     36.51086228	      0.00000000	     73.42300556	    172.85562323
      0.27237184	      0.00000000	     88.43923128	    104.30550543	    175.80031190	     62.73489646	     46.23831399	    183.32230694	      0.00000000	     66.46571262	     36.17889907	      0.00000000	      0.00000000	    114.96173206	     77.76380703	     13.47636915	     -2.34180657	      0.38725088	     17.07308384	   -114.96173206	    -77.76380703	    -13.47636915	     -1.87486499	      3.40637223	     -2.99293448	     10.45081918	     29.72646355	      3.84932550	     -1.76390630	      1.14303874	     -4.00429056	    -10.45081918	    -29.72646355	     -3.84932550	      0.53474302	     -0.13313040	     -0.45759251	     45.16958018	     37.22212759	      7.66626517	     -4.00023301	      1.18258130	     17.82680562	    -45.16958018	    -37.22212759	     -7.66626517	      1.05677568	     -1.56455555	      1.37062918	      0.00000000	      0.00000000	      0.00000000	      0.00000000	      0.00000000	      0.00000000	      0.00000000	      0.00000000	      0.00000000	      0.00000000	      0.00000000	      0.00000000	      0.00000000	      0.00000000	      0.00000000	      0.00000000	      0.00000000	      0.00000000	      0.00000000	      0.00000000	      0.00000000	      0.00000000	      0.00000000	      0.00000000	      0.00000000	      0.00000000	      0.00000000	      0.00000000	      0.00000000	      0.00000000	      0.00000000	      0.00000000	      0.00000000	      0.00000000	      0.00000000	      0.00000000	   -428.08510252	   -100.78814336	     39.71929991	     -1.09709540	      6.30050073	      4.01916974	    428.08510252	    100.78814336	    -39.71929991	     17.34588716	     -6.57315733	    170.41454766	      0.00000000	      0.00000000	      0.00000000	      0.00000000	      0.00000000	      0.00000000	      0.00000000	      0.00000000	      0.00000000	      0.00000000	      0.00000000	      0.00000000	      0.00000000	      0.00000000	    990.20022577	    127.65066099	      0.00000000	      0.00000000	     36.57789411	      0.00000000	     73.60102311	    173.14666459
      0.27254955	      0.00000000	     88.69477329	    104.66006411	    178.03585736	     63.15345440	     46.55719793	    183.59141796	     69.57817698	     66.59018294	     36.38054563	      0.00000000	      0.00000000	    115.24742962	     77.86123000	     13.51425646	     -2.35012997	      0.39313329	     17.10128231	   -115.24742962	    -77.86123000	    -13.51425646	     -1.87482297	      3.41385352	     -3.00518380	     10.52931786	     29.77508250	      3.85550161	     -1.76598443	      1.14693878	     -4.00058485	    -10.52931786	    -29.77508250	     -3.85550161	      0.53578490	     -0.13430344	     -0.46008994	     49.06263398	     40.17745451	      8.48628339	     -4.40250866	      1.28560391	     19.36436705	    -49.06263398	    -40.17745451	     -8.48628339	      1.14052134	     -1.70538354	      1.48190441	      0.00000000	      0.00000000	      0.00000000	      0.00000000	      0.00000000	      0.00000000	      0.00000000	      0.00000000	      0.00000000	      0.00000000	      0.00000000	      0.00000000	      0.00000000	      0.00000000	      0.00000000	      0.00000000	      0.00000000	      0.00000000	      0.00000000	      0.00000000	      0.00000000	      0.00000000	      0.00000000	      0.00000000	      0.00000000	      0.00000000	      0.00000000	      0.00000000	      0.00000000	      0.00000000	      0.00000000	      0.00000000	      0.00000000	      0.00000000	      0.00000000	      0.00000000	   -398.87547812	    -95.70408817	     33.90141676	     -1.03891160	      5.74409454	      3.84128251	    398.87547812	     95.70408817	    -33.90141676	     14.94141571	     -6.09030027	    158.75471488	      0.00000000	      0.00000000	      0.00000000	      0.00000000	      0.00000000	      0.00000000	      0.00000000	      0.00000000	      0.00000000	      0.00000000	      0.00000000	      0.00000000	      0.00000000	      0.00000000	    989.47084295	    124.17495244	      0.00000000	      0.00000000	     36.64739090	      0.00000000	     73.77716204	    173.44030288
      0.27258747	      0.00000000	     88.75494846	    104.74306808	    178.52201583	     63.24014816	     46.62586507	    183.65659688	    109.77692381	     66.62119420	     36.42592745	      0.00000000	      0.00000000	    115.29578358	     77.89752926	     13.51439506	     -2.34894892	      0.39254990	     17.09900844	   -115.29578358	    -77.89752926	    -13.51439506	     -1.87548627	      3.41523299	     -3.00716901	     10.54566372	     29.78548215	      3.85691223	     -1.76645967	      1.14778769	     -3.99994564	    -10.54566372	    -29.78548215	     -3.85691223	      0.53601218	     -0.13454800	     -0.46060375	     49.87911694	     40.77587398	      8.66516062	     -4.48914512	      1.30731340	     19.68712398	    -49.87911694	    -40.77587398	     -8.66516062	      1.15751241	     -1.73523215	      1.50436533	      0.00000000	      0.00000000	      0.00000000	      0.00000000	      0.00000000	      0.00000000	      0.00000000	      0.00000000	      0.00000000	      0.00000000	      0.00000000	      0.00000000	      0.00000000	      0.00000000	      0.00000000	      0.00000000	      0.00000000	      0.00000000	      0.00000000	      0.00000000	      0.00000000	      0.00000000	      0.00000000	      0.00000000	      0.00000000	      0.00000000	      0.00000000	      0.00000000	      0.00000000	      0.00000000	      0.00000000	      0.00000000	      0.00000000	      0.00000000	      0.00000000	      0.00000000	   -393.59105998	    -95.30565964	     32.79443891	     -1.03488984	      5.64119410	      3.82994881	    393.59105998	     95.30565964	    -32.79443891	     14.49288965	     -6.00233951	    156.64022186	      0.00000000	      0.00000000	      0.00000000	      0.00000000	      0.00000000	      0.00000000	      0.00000000	      0.00000000	      0.00000000	      0.00000000	      0.00000000	      0.00000000	      0.00000000	      0.00000000	    989.39694210	    123.69324496	      0.00000000	      0.00000000	     36.66237443	      0.00000000	     73.81469253	    173.50326492
      0.27277703	      0.00000000	     89.09125574	    105.20320965	    181.05952682	     63.68036377	     46.98245043	    184.01552362	    217.36580171	     66.77915048	     36.65846235	      0.00000000	      0.00000000	    115.60350422	     78.01000711	     13.55273028	     -2.35688199	      0.39827782	     17.12758532	   -115.60350422	    -78.01000711	    -13.55273028	     -1.87577934	      3.42326135	     -3.02030358	     10.62636249	     29.83746698	      3.86389830	     -1.76881080	      1.15200199	     -3.99713779	    -10.62636249	    -29.83746698	     -3.86389830	      0.53714616	     -0.13575924	     -0.46312313	     53.90441103	     43.13287463	      9.57126832	     -4.91137916	      1.41501193	     21.28653507	    -53.90441103	    -43.13287463	     -9.57126832	      1.22463283	     -1.88380135	      1.58944302	      0.00000000	      0.00000000	      0.00000000	      0.00000000	      0.00000000	      0.00000000	      0.00000000	      0.00000000	      0.00000000	      0.00000000	      0.00000000	      0.00000000	      0.00000000	      0.00000000	      0.00000000	      0.00000000	      0.00000000	      0.00000000	      0.00000000	      0.00000000	      0.00000000	      0.00000000	      0.00000000	      0.00000000	      0.00000000	      0.00000000	      0.00000000	      0.00000000	      0.00000000	      0.00000000	      0.00000000	      0.00000000	      0.00000000	      0.00000000	      0.00000000	      0.00000000	   -365.19960197	    -94.12151539	     27.27565046	     -1.02211376	      5.10795108	      3.80539971	    365.19960197	     94.12151539	    -27.27565046	     12.26664637	     -5.53675647	    145.27038591	      0.00000000	      0.00000000	      0.00000000	      0.00000000	      0.00000000	      0.00000000	      0.00000000	      0.00000000	      0.00000000	      0.00000000	      0.00000000	      0.00000000	      0.00000000	      0.00000000	    989.32304039	    122.23341368	      0.00000000	      0.00000000	     36.73881756	      0.00000000	     74.00157073	    173.82010028
